<svg width="24" height="24" viewBox="0 0 24 24" fill="none" xmlns="http://www.w3.org/2000/svg">
<g clip-path="url(#clip0_872_1830)">
<path d="M18.375 0H5.625C2.5184 0 0 2.5184 0 5.625V18.375C0 21.4816 2.5184 24 5.625 24H18.375C21.4816 24 24 21.4816 24 18.375V5.625C24 2.5184 21.4816 0 18.375 0Z" fill="url(#paint0_linear_872_1830)"/>
<mask id="mask0_872_1830" style="mask-type:luminance" maskUnits="userSpaceOnUse" x="2" y="2" width="20" height="20">
<path d="M21.375 2.625H2.625V21.375H21.375V2.625Z" fill="white"/>
</mask>
<g mask="url(#mask0_872_1830)">
<path fill-rule="evenodd" clip-rule="evenodd" d="M13.1697 3.68437L13.1797 4.74375L15.1362 4.7625L17.0929 4.78125L16.8718 5.1375C16.7502 5.33344 16.6183 5.54437 16.5787 5.60625C16.539 5.66812 16.3557 5.96344 16.1714 6.2625C15.9871 6.56156 15.6604 7.08839 15.4454 7.43325C15.2306 7.77811 15.0376 8.0903 15.0167 8.127C14.9958 8.1637 14.9515 8.23594 14.9181 8.2875C14.8847 8.33906 14.7432 8.56688 14.6037 8.79375C14.2354 9.39244 13.5034 10.5722 13.4055 10.725C13.2428 10.979 13.1609 11.128 13.1609 11.1702C13.1609 11.2018 14.2182 11.2103 17.2578 11.2033L21.3547 11.1938V10.125V9.05625L19.1882 9.04655L17.0218 9.03689L17.0847 8.9153C17.1192 8.84845 17.1771 8.75156 17.2132 8.7C17.2494 8.64844 17.418 8.37844 17.588 8.1C17.7581 7.82156 17.935 7.53469 17.9813 7.4625C18.0276 7.39031 18.2209 7.07812 18.4109 6.76875C18.6009 6.45937 18.7948 6.14719 18.8418 6.075C18.8888 6.00281 19.041 5.75813 19.1802 5.53125C19.3192 5.30437 19.4712 5.05969 19.5178 4.9875C19.5644 4.91531 19.7421 4.62844 19.9126 4.35C20.0831 4.07156 20.2769 3.75937 20.3433 3.65625C20.571 3.30263 20.9609 2.66381 20.9609 2.64441C20.9609 2.63372 19.2057 2.625 17.0604 2.625H13.1597L13.1697 3.68437ZM6.6943 3.38437C6.55344 3.65766 6.33303 4.08375 6.2045 4.33125C6.07602 4.57875 5.8145 5.085 5.62334 5.45625C5.43219 5.8275 5.16214 6.35062 5.02316 6.61875C4.4427 7.73869 4.20875 8.19098 3.33088 9.89062C3.16311 10.2155 2.96098 10.6014 2.88177 10.7483C2.80255 10.8953 2.72089 11.0598 2.70027 11.114L2.66281 11.2125L4.2275 11.2124L5.79219 11.2123L6.02708 10.753C6.78059 9.27956 7.11509 8.64656 7.14547 8.63691C7.16427 8.63091 7.23875 8.73108 7.31094 8.85952C7.54166 9.27 7.67239 9.50016 7.81681 9.75C7.8943 9.88406 7.99775 10.0644 8.04669 10.1507C8.09562 10.237 8.25223 10.507 8.39469 10.7507L8.65372 11.1938L10.268 11.2035L11.8823 11.2133L11.7483 10.9785C11.6745 10.8494 11.5806 10.6847 11.5394 10.6125C11.4983 10.5403 11.2745 10.1522 11.0421 9.75C10.8097 9.34781 10.5727 8.93437 10.5153 8.83125C10.458 8.72812 10.3071 8.46656 10.18 8.25C9.95919 7.87397 9.70419 7.4295 9.52372 7.10625C9.47759 7.02375 9.18589 6.5175 8.87534 5.98125C8.5648 5.445 8.26433 4.92188 8.20766 4.81875C8.15094 4.71563 7.91333 4.30195 7.67961 3.89944C7.44589 3.49697 7.22131 3.10462 7.18053 3.02756C7.04759 2.77641 6.98347 2.82342 6.6943 3.38437ZM2.63173 15.3652L2.64233 18.0938L2.74789 18.3937C3.21711 19.7276 4.17603 20.7523 5.43425 21.2644L5.70622 21.375L7.11795 21.3744C8.69412 21.3739 8.61434 21.3848 9.18636 21.0915C10.6217 20.3557 11.5304 19.022 11.6963 17.4079C11.7381 17.0011 11.7531 12.8759 11.7132 12.7717C11.6929 12.7191 11.5257 12.7125 10.2152 12.7125H8.74011L8.72694 15.0281C8.71231 17.5921 8.72464 17.4605 8.45961 17.8794C7.8282 18.8776 6.25217 18.7932 5.71461 17.7324C5.54736 17.4023 5.5378 17.2673 5.51445 14.9062L5.49219 12.6562L4.05664 12.6464L2.62109 12.6366L2.63173 15.3652ZM13.1484 12.7375C13.1347 12.7513 13.1234 14.7003 13.1234 17.0687V21.375H17.2484H21.3734V20.1378V18.9005L18.4953 18.8909L15.6172 18.8812L15.6075 15.7969L15.598 12.7125H14.3857C13.7189 12.7125 13.1622 12.7238 13.1484 12.7375Z" fill="white"/>
</g>
</g>
<defs>
<linearGradient id="paint0_linear_872_1830" x1="0" y1="0" x2="24" y2="24.9375" gradientUnits="userSpaceOnUse">
<stop stop-color="#014C8E"/>
<stop offset="1" stop-color="#013B70"/>
</linearGradient>
<clipPath id="clip0_872_1830">
<rect width="24" height="24" fill="white"/>
</clipPath>
</defs>
</svg>
