<svg width="24" height="24" viewBox="0 0 24 24" fill="none" xmlns="http://www.w3.org/2000/svg">
<g clip-path="url(#clip0_872_1924)">
<path d="M18.375 0H5.625C2.5184 0 0 2.5184 0 5.625V18.375C0 21.4816 2.5184 24 5.625 24H18.375C21.4816 24 24 21.4816 24 18.375V5.625C24 2.5184 21.4816 0 18.375 0Z" fill="#F4F2ED"/>
<path d="M13.7481 15.1802C14.1727 18.9763 17.781 19.0789 19.3729 19.4893C24.0425 20.4126 21.7078 22.1569 19.7974 22.1569L19.9035 22.4646L15.8707 22.5673L19.1607 20.7205L19.479 21.5413C20.0097 21.7464 23.5119 20.5153 17.8872 20.0023C15.5523 19.5919 14.0665 19.0789 13.2175 18.053L10.352 19.6945C9.60913 18.053 7.38046 17.4373 8.33561 15.2827" fill="#D10000"/>
<path d="M13.7481 15.1802C14.1727 18.9763 17.781 19.0789 19.3729 19.4893C24.0425 20.4126 21.7078 22.1569 19.7974 22.1569L19.9035 22.4646L15.8707 22.5673L19.1607 20.7205L19.479 21.5413C20.0097 21.7464 23.5119 20.5153 17.8872 20.0023C15.5523 19.5919 14.0665 19.0789 13.2175 18.053L10.352 19.6945C9.60913 18.053 7.38046 17.4373 8.33561 15.2827" stroke="black" stroke-width="1.113" stroke-linecap="round" stroke-linejoin="round"/>
<path d="M13.1122 17.4373C13.3244 17.54 13.6428 17.1296 13.5367 16.9243L5.78935 11.3841C5.78935 11.0763 6.53225 10.4607 5.47097 9.63987L5.5771 9.43465L4.19744 8.81909C4.40969 9.22949 4.62195 9.33209 4.8342 10.0503L5.25872 9.84509C5.68323 10.3581 5.68323 10.7684 5.25872 10.9737L4.51582 10.4607C4.51582 10.3581 4.62195 10.2554 4.62195 10.1529C4.62195 10.1529 4.51582 10.0503 4.19744 10.0503C3.98518 10.0503 3.56067 9.63987 3.24229 9.63987C3.24229 9.94765 3.77292 10.4607 3.77292 10.9737L4.09131 10.7684C4.40969 10.8711 4.62195 11.0763 4.8342 11.3841C4.51582 11.7944 4.09131 11.9997 3.24229 11.5892C3.24229 11.3841 3.45454 11.2814 3.45454 11.0763C3.03003 11.0763 2.49939 10.7684 1.96875 10.4607C2.18101 11.1789 2.81777 11.9997 3.45454 12.2049C4.51582 12.6152 4.94033 11.8971 5.47097 11.8971L13.1122 17.4373Z" fill="#FFD700" stroke="black" stroke-width="1.113" stroke-linecap="round" stroke-linejoin="round"/>
<path d="M10.1403 10.7685L6.95651 6.97239C7.16876 6.4594 7.06263 5.74121 6.95651 5.43341C6.42586 3.74053 7.59327 2.97104 8.65455 2.15025C9.50355 1.53466 9.92805 1.43206 10.1403 1.53466C10.3526 1.73986 9.29132 2.35545 9.07906 3.07364C9.07906 3.07364 8.8668 4.20222 9.60968 3.68923C10.2464 3.38143 11.0955 3.17624 12.0506 3.38143C12.7935 3.48403 13.961 3.89443 14.7039 4.71522C16.9325 4.30482 15.659 2.97104 15.4467 2.15025C16.1896 1.53466 20.0633 5.33082 15.3406 7.79318C15.3406 9.22956 15.0222 10.1529 14.0671 10.9737C12.8996 11.8972 13.6425 12.3075 13.8549 12.9231C14.3855 14.6673 14.1732 15.7958 12.0506 16.1036C10.5649 16.3088 10.3526 16.9244 9.18519 16.1036" fill="#D10000"/>
<path d="M10.1403 10.7685L6.95651 6.97239C7.16876 6.4594 7.06263 5.74121 6.95651 5.43341C6.42586 3.74053 7.59327 2.97104 8.65455 2.15025C9.50355 1.53466 9.92805 1.43206 10.1403 1.53466C10.3526 1.73986 9.29132 2.35545 9.07906 3.07364C9.07906 3.07364 8.8668 4.20222 9.60968 3.68923C10.2464 3.38143 11.0955 3.17624 12.0506 3.38143C12.7935 3.48403 13.961 3.89443 14.7039 4.71522C16.9325 4.30482 15.659 2.97104 15.4467 2.15025C16.1896 1.53466 20.0633 5.33082 15.3406 7.79318C15.3406 9.22956 15.0222 10.1529 14.0671 10.9737C12.8996 11.8972 13.6425 12.3075 13.8549 12.9231C14.3855 14.6673 14.1732 15.7958 12.0506 16.1036C10.5649 16.3088 10.3526 16.9244 9.18519 16.1036" stroke="black" stroke-width="1.113" stroke-linecap="round" stroke-linejoin="round"/>
<path d="M9.61037 4.61258C9.7165 4.20219 8.65524 3.48399 7.48783 5.63857C7.3817 5.94636 6.95719 6.76715 6.95719 6.76715C6.85107 7.17754 6.74493 7.69054 6.53268 7.89573C5.4714 8.92172 6.00204 10.2555 7.3817 10.7685C7.70008 10.8711 8.65524 11.5892 9.29201 11.8971C9.61037 12.1022 9.29201 12.8205 8.76136 12.7179C5.89591 12.1022 5.78979 14.0517 6.95719 14.3595L11.0962 14.1542" fill="#D10000"/>
<path d="M9.61037 4.61258C9.7165 4.20219 8.65524 3.48399 7.48783 5.63857C7.3817 5.94636 6.95719 6.76715 6.95719 6.76715C6.85107 7.17754 6.74493 7.69054 6.53268 7.89573C5.4714 8.92172 6.00204 10.2555 7.3817 10.7685C7.70008 10.8711 8.65524 11.5892 9.29201 11.8971C9.61037 12.1022 9.29201 12.8205 8.76136 12.7179C5.89591 12.1022 5.78979 14.0517 6.95719 14.3595L11.0962 14.1542" stroke="black" stroke-width="1.113" stroke-linecap="round" stroke-linejoin="round"/>
<path d="M10.2461 4.5099C10.6706 4.0995 11.4136 4.0995 11.7319 4.7151C11.8381 4.92029 11.8381 5.12549 11.9442 5.22809" stroke="black" stroke-width="1.113" stroke-linecap="round" stroke-linejoin="round"/>
<path d="M7.16992 10.0503C7.70056 10.1529 7.70056 10.4606 8.33732 10.9736C9.39859 11.7944 10.6722 11.0762 10.9906 10.8711C11.4151 10.6659 11.4151 10.3581 11.8396 10.5633" fill="#D10000"/>
<path d="M7.16992 10.0503C7.70056 10.1529 7.70056 10.4606 8.33733 10.9736C9.39859 11.7944 10.6722 11.0762 10.9906 10.8711C11.4151 10.6659 11.4151 10.3581 11.8396 10.5633" stroke="black" stroke-width="1.67" stroke-linecap="round" stroke-linejoin="round"/>
<path d="M8.54905 8.61402C7.27552 7.89583 6.95714 9.02441 7.48777 9.53743C7.59391 9.63999 7.91228 9.63999 8.12454 9.74265C8.3368 9.84521 8.44293 9.43477 8.97357 9.69127C9.39805 9.94777 9.6103 9.43477 9.18582 9.22961" fill="#D10000"/>
<path d="M8.54905 8.61402C7.27552 7.89583 6.95714 9.02441 7.48777 9.53743C7.59391 9.63999 7.91228 9.63999 8.12454 9.74265C8.3368 9.84521 8.44293 9.43477 8.97357 9.69127C9.39805 9.94777 9.6103 9.43477 9.18582 9.22961" stroke="black" stroke-width="1.113" stroke-linecap="round" stroke-linejoin="round"/>
<path d="M9.29128 5.12564C9.29128 4.81784 8.65452 4.61265 7.91161 5.74123C7.06259 7.07501 7.16872 7.7932 7.59324 8.10099C7.91161 8.30619 8.23 8.20359 8.54838 7.28021C8.76064 6.76721 9.29128 5.43343 9.29128 5.12564Z" fill="white" stroke="black" stroke-width="1.113" stroke-linecap="round" stroke-linejoin="round"/>
<path d="M10.5653 5.02292C11.6267 4.81772 11.5205 8.61387 9.82245 8.71646C7.91217 8.81906 9.18571 5.33071 10.5653 5.02292Z" fill="white" stroke="black" stroke-width="1.113" stroke-linecap="round" stroke-linejoin="round"/>
<path d="M10.034 6.86973C10.5646 7.28012 9.92785 8.9217 9.18497 8.30611C8.65434 7.79312 9.39722 6.35674 10.034 6.86973Z" fill="black"/>
<path d="M8.23042 6.66459C8.76106 7.07499 7.91204 8.40877 7.59365 7.79318C7.27527 7.38278 7.59365 6.25419 8.23042 6.66459Z" fill="black"/>
<path d="M7.91188 6.76709C8.01801 6.76709 8.01801 7.38268 7.91188 7.38268C7.59349 7.38268 7.69963 6.76709 7.91188 6.76709Z" fill="white"/>
<path d="M9.61068 7.17749C9.71681 7.17749 9.71681 7.58788 9.50456 7.58788C9.39843 7.58788 9.29232 7.17749 9.61068 7.17749Z" fill="white"/>
<path d="M9.8217 16.1036C9.29109 16.1036 8.97271 16.2063 8.33594 15.488L9.8217 16.1036Z" fill="#D10000"/>
<path d="M9.8217 16.1036C9.29109 16.1036 8.97271 16.2063 8.33594 15.488" stroke="black" stroke-width="1.113" stroke-linecap="round" stroke-linejoin="round"/>
<path d="M9.29187 15.4881C6.53255 15.6933 8.6551 11.8971 10.7777 13.5387C11.2022 13.8465 11.6267 13.9491 12.2634 13.7439" fill="#D10000"/>
<path d="M9.29187 15.4881C6.53255 15.6933 8.6551 11.8971 10.7777 13.5387C11.2022 13.8465 11.6267 13.9491 12.2634 13.7439" stroke="black" stroke-width="1.113" stroke-linecap="round" stroke-linejoin="round"/>
<path d="M8.86702 13.6414C9.1854 14.1544 8.12412 14.9751 7.48735 14.4621C6.85058 13.9491 8.54863 13.231 8.86702 13.6414Z" fill="#D10000" stroke="black" stroke-width="1.113" stroke-linecap="round" stroke-linejoin="round"/>
<path d="M8.22975 12.6154C5.7888 12.3076 5.89494 14.0518 6.95621 14.3596C8.12362 14.6674 9.39714 13.0258 8.22975 12.6154Z" fill="#D10000" stroke="black" stroke-width="1.113" stroke-linecap="round" stroke-linejoin="round"/>
<path d="M7.59298 13.1283C7.69911 13.8465 6.10718 14.2569 5.78881 13.2309C5.57655 12.5127 7.38072 11.4867 7.59298 13.1283Z" fill="#D10000" stroke="black" stroke-width="1.113" stroke-linecap="round" stroke-linejoin="round"/>
<path d="M7.91216 11.6919C8.54893 12.5127 6.95701 12.923 6.5325 12.41C5.68347 11.4867 7.38152 11.0763 7.91216 11.6919Z" fill="#D10000" stroke="black" stroke-width="1.113" stroke-linecap="round" stroke-linejoin="round"/>
<path d="M5.68359 19.3868C7.06326 19.2842 9.39805 19.2842 8.7613 18.2582C8.54904 17.9504 8.65518 17.7453 8.65518 17.54C8.86743 18.3608 10.5655 17.8478 10.4593 18.8738L8.44292 21.5414L5.68359 19.3868Z" fill="#00B000" stroke="black" stroke-width="1.113" stroke-linecap="round" stroke-linejoin="round"/>
<path d="M11.8395 18.3608C12.264 18.1556 12.6885 18.3608 13.113 18.053C13.8559 18.7711 13.8559 19.7971 14.0681 20.0023L10.4598 21.4387L8.125 20.3101C9.18628 19.0789 10.3537 19.5919 10.4598 18.8738C10.672 17.6426 11.3089 17.9503 11.8395 18.4633C11.8395 18.4633 11.9456 19.4893 11.6272 19.4893C10.8844 19.5919 9.29241 20.2076 9.29241 20.2076" fill="#00B000"/>
<path d="M11.8395 18.3608C12.264 18.1556 12.6885 18.3608 13.113 18.053C13.8559 18.7711 13.8559 19.7971 14.0681 20.0023L10.4598 21.4387L8.125 20.3101C9.18628 19.0789 10.3537 19.5919 10.4598 18.8738C10.672 17.6426 11.3089 17.9503 11.8395 18.4633C11.8395 18.4633 11.9456 19.4893 11.6272 19.4893C10.8844 19.5919 9.29241 20.2076 9.29241 20.2076" stroke="black" stroke-width="1.113" stroke-linecap="round" stroke-linejoin="round"/>
<path d="M3.87891 19.8998C4.09116 19.592 7.06274 18.7711 7.06274 20.0023L5.25857 20.9258L3.87891 19.8998Z" fill="white" stroke="black" stroke-width="1.113" stroke-linecap="round" stroke-linejoin="round"/>
<path d="M13.3244 19.0792C13.3244 19.7973 12.6877 19.6947 12.5816 19.387C12.3693 18.6687 13.3244 18.5662 13.3244 19.0792Z" fill="#F4FFF4" stroke="black" stroke-width="1.113" stroke-linecap="round" stroke-linejoin="round"/>
<path d="M6.31922 20.9258C3.66602 21.2337 3.66602 20.5155 3.66602 20.5155C3.66602 20.0025 3.66602 20.0025 3.87827 19.8999C4.19666 20.3102 6.00083 20.5155 6.84986 20.105" fill="white"/>
<path d="M6.31922 20.9258C3.66602 21.2337 3.66602 20.5155 3.66602 20.5155C3.66602 20.0025 3.66602 20.0025 3.87827 19.8999C4.19666 20.3102 6.00083 20.5155 6.84986 20.105" stroke="black" stroke-width="1.113" stroke-linecap="round" stroke-linejoin="round"/>
<path d="M10.1403 21.0283C10.1403 19.1816 7.06255 19.3868 6.42578 20.5153L7.80544 21.5413L10.1403 21.0283Z" fill="white" stroke="black" stroke-width="1.113" stroke-linecap="round" stroke-linejoin="round"/>
<path d="M13.9616 19.8997C14.1738 19.7971 14.0677 20.2075 14.0677 20.6179C11.9451 21.9517 7.48773 22.0543 6.32031 21.1309C6.32031 20.7205 6.32031 20.6179 6.42645 20.4127C7.06321 21.4387 13.1125 21.0283 13.9616 19.8997Z" fill="white" stroke="black" stroke-width="1.113" stroke-linecap="round" stroke-linejoin="round"/>
<path d="M9.39727 19.5921L10.2463 19.6947M8.97278 18.6687L10.034 18.7713M8.76052 18.9765L9.82177 19.1817M8.22989 19.1817L9.07891 19.3869M7.38086 19.3869L8.6544 19.5921M10.5647 18.7713L11.8382 18.8739M10.4586 19.0791L11.7321 19.2843M10.034 19.3869L10.777 19.4895" stroke="#00FFFF" stroke-width="1.113" stroke-linecap="round" stroke-linejoin="round"/>
</g>
<defs>
<clipPath id="clip0_872_1924">
<rect width="24" height="24" fill="white"/>
</clipPath>
</defs>
</svg>
