<svg width="24" height="24" viewBox="0 0 24 24" fill="none" xmlns="http://www.w3.org/2000/svg">
<g clip-path="url(#clip0_872_2522)">
<path d="M18.375 0H5.625C2.5184 0 0 2.5184 0 5.625V18.375C0 21.4816 2.5184 24 5.625 24H18.375C21.4816 24 24 21.4816 24 18.375V5.625C24 2.5184 21.4816 0 18.375 0Z" fill="#F4F2ED"/>
<mask id="mask0_872_2522" style="mask-type:luminance" maskUnits="userSpaceOnUse" x="5" y="2" width="14" height="20">
<path d="M18.8317 2.625H5.25V21.375H18.8317V2.625Z" fill="white"/>
</mask>
<g mask="url(#mask0_872_2522)">
<path fill-rule="evenodd" clip-rule="evenodd" d="M18.601 11.6647C18.601 15.3778 15.6582 18.3879 12.028 18.3879C8.39791 18.3879 5.45508 15.3778 5.45508 11.6647C5.45508 7.95155 8.39791 4.94141 12.028 4.94141C15.6582 4.94141 18.601 7.95155 18.601 11.6647Z" fill="#D33833"/>
<path d="M5.72169 13.3299C5.72169 13.3299 5.24585 6.31873 11.7063 6.11839L11.2555 5.36719L7.74994 6.5441L6.74832 7.69591L5.87193 9.37364L5.37109 11.3267L5.52134 12.6288" fill="#EF3D3A"/>
<path d="M7.52527 7.07833C6.37202 8.25831 5.65837 9.88757 5.65837 11.6899C5.65837 13.4919 6.37202 15.1213 7.52527 16.3011C8.67907 17.4808 10.2692 18.2088 12.0271 18.2088C13.7851 18.2088 15.3753 17.4808 16.529 16.3011C17.6822 15.1213 18.396 13.4919 18.396 11.6899C18.396 9.88757 17.6822 8.25831 16.529 7.07833C15.3753 5.8988 13.7851 5.1708 12.0271 5.17065C10.2692 5.1708 8.67907 5.8988 7.52527 7.07833ZM7.23335 16.5865C6.00772 15.333 5.25 13.6007 5.25 11.6899C5.25 9.77872 6.00772 8.04663 7.23335 6.79309C8.45869 5.53934 10.1549 4.76223 12.0271 4.76245C13.8994 4.76223 15.5957 5.53934 16.8208 6.79309C18.0466 8.04663 18.8044 9.77891 18.8043 11.6899C18.8044 13.6007 18.0466 15.333 16.8208 16.5865C15.5957 17.8401 13.8994 18.6172 12.0271 18.6172C10.1549 18.6172 8.45869 17.8401 7.23335 16.5865Z" fill="#231F20"/>
<path fill-rule="evenodd" clip-rule="evenodd" d="M14.7939 11.702L13.7922 11.8521L12.44 12.0024L11.5635 12.0274L10.7123 12.0024L10.0612 11.8021L9.48518 11.1761L9.0345 9.89905L8.93434 9.62351L8.33339 9.42326L7.98282 8.84734L7.73242 8.02102L8.00791 7.29483L8.6589 7.06947L9.18474 7.31992L9.43521 7.87077L9.73568 7.82067L9.83581 7.69553L9.73568 7.11957L9.71056 6.39339L9.86084 5.39181L9.85493 4.8197L10.3116 4.08975L11.1129 3.51381L12.5151 2.91284L14.0676 3.13821L15.4197 4.11476L16.0458 5.11634L16.4464 5.84253L16.5465 7.64542L16.2461 9.19793L15.6952 10.5751L15.1693 11.3013" fill="#F0D6B7"/>
<path fill-rule="evenodd" clip-rule="evenodd" d="M13.9422 16.0338L10.3614 16.184V16.785L10.6619 18.8883L10.5117 19.0637L8.00766 18.2122L7.83233 17.9118L7.58194 15.0823L7.0061 13.3796L6.88086 12.9789L8.88402 11.6017L9.51004 11.3513L10.0609 12.0274L10.5367 12.4531L11.0876 12.6284L11.338 12.7035L11.6384 14.0056L11.8638 14.281L12.4397 14.0807L12.039 14.8569L14.2176 15.8836L13.9422 16.0338Z" fill="#335061"/>
<path fill-rule="evenodd" clip-rule="evenodd" d="M8.00841 7.29481L8.6594 7.06945L9.18525 7.3199L9.43571 7.87076L9.73618 7.82065L9.81127 7.52017L9.66108 6.9443L9.81127 5.56705L9.68602 4.81584L10.1368 4.29001L11.1134 3.51378L10.8379 3.13818L9.46065 3.81426L8.88476 4.26498L8.55925 4.96608L8.05844 5.64216L7.9082 6.44347L8.00841 7.29481Z" fill="#6D6B6D"/>
<path fill-rule="evenodd" clip-rule="evenodd" d="M9.03485 4.94112C9.03485 4.94112 9.41042 4.01466 10.9129 3.56394C12.4153 3.11322 10.988 3.23837 10.988 3.23837L9.36043 3.86442L8.73438 4.4904L8.45898 4.99123L9.03485 4.94112Z" fill="#DCD9D8"/>
<path fill-rule="evenodd" clip-rule="evenodd" d="M8.2838 7.11963C8.2838 7.11963 7.75796 5.36677 9.76121 5.11641L9.68602 4.81592L8.30889 5.14149L7.9082 6.44355L8.00841 7.29488L8.2838 7.11963Z" fill="#DCD9D8"/>
<path fill-rule="evenodd" clip-rule="evenodd" d="M9.08398 9.4483L9.41183 9.13062C9.41183 9.13062 9.55986 9.14782 9.5848 9.32307C9.60983 9.49845 9.68492 11.0759 10.7616 11.9273C10.8599 12.005 9.96045 11.8021 9.96045 11.8021L9.15911 10.55" fill="#F7E4CD"/>
<path fill-rule="evenodd" clip-rule="evenodd" d="M13.6926 8.97264C13.6926 8.97264 13.7511 8.21363 13.9554 8.272C14.1598 8.33037 14.1598 8.53476 14.1598 8.53476C14.1598 8.53476 13.6634 8.8559 13.6926 8.97264Z" fill="#F7E4CD"/>
<path d="M15.7712 6.19312C15.7712 6.19312 15.3584 6.28025 15.3205 6.64384C15.2824 7.00749 15.7712 6.71895 15.8463 6.69394" fill="#F7E4CD"/>
<path d="M12.7403 6.21826C12.7403 6.21826 12.1895 6.29338 12.1895 6.6439C12.1895 6.99447 12.8155 6.96946 12.9907 6.81923" fill="#F7E4CD"/>
<path fill-rule="evenodd" clip-rule="evenodd" d="M9.33459 7.84582C9.33459 7.84582 8.38302 7.26986 8.28291 7.8208C8.18276 8.37166 7.95733 8.77235 8.43314 9.34822L8.10763 9.24808L7.80716 8.47187L7.70703 7.72066L8.28291 7.11963L8.93396 7.16973L9.30956 7.47022L9.33459 7.84582Z" fill="#F7E4CD"/>
<path fill-rule="evenodd" clip-rule="evenodd" d="M9.78522 6.2684C9.78522 6.2684 10.2108 4.0649 12.3644 3.63919C14.1373 3.28876 15.0686 3.71432 15.4192 4.11493C15.4192 4.11493 13.8417 2.237 12.3392 2.81287C10.8369 3.38882 9.73515 4.4405 9.76018 5.11651C9.80284 6.26795 9.78522 6.2684 9.78522 6.2684Z" fill="#F7E4CD"/>
<path fill-rule="evenodd" clip-rule="evenodd" d="M15.595 4.36536C15.595 4.36536 14.8689 4.34035 14.8438 4.99142C14.8438 4.99142 14.8437 5.09155 14.8938 5.19168C14.8938 5.19168 15.4698 4.54062 15.8203 4.89121" fill="#F7E4CD"/>
<path fill-rule="evenodd" clip-rule="evenodd" d="M12.4154 5.25931C12.4154 5.25931 12.2904 4.25998 11.4384 4.84096C10.8875 5.21656 10.9377 5.7424 11.0377 5.84254C11.1379 5.94275 11.1106 6.14445 11.187 6.006C11.2631 5.86755 11.238 5.41683 11.5135 5.29168C11.7889 5.16646 12.2405 5.02658 12.4154 5.25931Z" fill="#F7E4CD"/>
<path fill-rule="evenodd" clip-rule="evenodd" d="M10.0609 12.0274L7.70718 13.0791C7.70718 13.0791 8.68374 16.9603 8.1829 18.1623L7.83233 18.0371L7.8073 16.5597L7.15633 13.7553L6.88086 12.9789L9.33473 11.3264L10.0609 12.0274Z" fill="#49728B"/>
<path fill-rule="evenodd" clip-rule="evenodd" d="M10.3042 14.1743L10.6382 14.5818V16.0841H10.2375C10.2375 16.0841 10.1875 15.0325 10.1875 14.9073C10.1875 14.782 10.2375 14.3313 10.2375 14.3313" fill="#49728B"/>
<path fill-rule="evenodd" clip-rule="evenodd" d="M10.3124 16.3093L9.18555 16.3594L9.5111 16.5848L10.3124 16.7099" fill="#49728B"/>
<path fill-rule="evenodd" clip-rule="evenodd" d="M14.168 16.059L15.0944 16.0339L15.3198 18.3377L14.3682 18.4628L14.168 16.059Z" fill="#335061"/>
<path fill-rule="evenodd" clip-rule="evenodd" d="M14.418 16.059L15.8203 15.9839C15.8203 15.9839 16.3962 14.5315 16.3962 14.4564C16.3962 14.3813 16.897 12.353 16.897 12.353L15.7701 11.1762L15.5448 10.9758L14.9438 11.5769V13.9055L14.418 16.059Z" fill="#335061"/>
<path fill-rule="evenodd" clip-rule="evenodd" d="M15.0443 15.8838L14.168 16.0591L14.2931 16.7603C14.6186 16.9105 15.1695 16.5099 15.1695 16.5099" fill="#49728B"/>
<path fill-rule="evenodd" clip-rule="evenodd" d="M15.0703 11.5017L16.8232 12.8038L16.8732 12.2028L15.5461 10.9758L15.0703 11.5017Z" fill="#49728B"/>
<path fill-rule="evenodd" clip-rule="evenodd" d="M11.1802 20.9922L10.6618 18.8886L10.404 17.3363L10.3613 16.1842L12.7077 16.0593L14.1675 16.0591L14.0347 18.6885L14.2601 20.7168L14.2351 21.0923L12.332 21.2426L11.1802 20.9922Z" fill="white"/>
<path fill-rule="evenodd" clip-rule="evenodd" d="M13.8428 16.0341C13.8428 16.0341 13.7176 18.6383 14.0933 20.4911C14.0933 20.4911 13.3421 20.967 12.2402 21.0922L14.3436 21.017L14.594 20.8668L14.2935 16.7603L14.2185 15.8838" fill="#DCD9D8"/>
<path fill-rule="evenodd" clip-rule="evenodd" d="M15.3618 18.1376L16.3384 17.8621L18.1913 17.762L18.4667 16.9107L17.9659 15.4332L17.3901 15.3582L16.5887 15.6086L15.8199 15.9839L15.4118 15.909L15.0938 16.034" fill="white"/>
<path fill-rule="evenodd" clip-rule="evenodd" d="M15.3457 17.6364C15.3457 17.6364 15.9967 17.336 16.0969 17.361L15.8215 15.9838L16.147 15.8586C16.147 15.8586 16.3724 17.1606 16.3724 17.3109C16.3724 17.3109 17.7746 17.386 17.8997 17.386C17.8997 17.386 18.2002 16.8101 18.1251 16.2091L18.4005 17.0105L18.4256 17.4611L18.025 18.0621L17.5742 18.1623L16.8231 18.1372L16.5727 17.8117L15.6962 17.9369L15.4208 18.0371" fill="#DCD9D8"/>
<path d="M14.3612 15.8589L13.8103 14.4567L13.2344 13.6303C13.2344 13.6303 13.3595 13.2798 13.5348 13.2798C13.7102 13.2798 14.1107 13.2798 14.1107 13.2798L14.6616 13.4801L14.6116 14.4066L14.3612 15.8589Z" fill="white"/>
<path fill-rule="evenodd" clip-rule="evenodd" d="M14.4685 15.3829C14.4685 15.3829 13.7673 14.0309 13.7673 13.8305C13.7673 13.8305 13.8925 13.5301 14.0678 13.6051C14.2431 13.6802 14.6188 13.8806 14.6188 13.8806V13.4048L13.7673 13.2295L13.1914 13.3046L14.168 15.6083L14.3682 15.6334" fill="#DCD9D8"/>
<path d="M11.4053 12.078L10.7116 12.0026L10.0605 11.8022V12.0275L10.3786 12.3783L11.3803 12.8291" fill="white"/>
<path fill-rule="evenodd" clip-rule="evenodd" d="M10.2861 12.1531C10.2861 12.1531 11.0624 12.4786 11.3128 12.4035L11.3377 12.7037L10.6367 12.5538L10.2109 12.2533L10.2861 12.1531Z" fill="#DCD9D8"/>
<path fill-rule="evenodd" clip-rule="evenodd" d="M15.3594 13.3649C14.9345 13.3524 14.5506 13.302 14.2146 13.2072C14.2374 13.0694 14.1947 12.9342 14.229 12.8349C14.3227 12.7675 14.4797 12.7686 14.6213 12.7527C14.4989 12.6925 14.3268 12.6687 14.1855 12.7035C14.1822 12.6079 14.1393 12.5486 14.1133 12.4738C14.3522 12.3885 14.9162 11.8296 15.2333 12.0146C15.3845 12.1026 15.4487 12.6055 15.4605 12.85C15.4702 13.0529 15.442 13.2575 15.3594 13.3649Z" fill="#D33833"/>
<path d="M15.3594 13.3649C14.9345 13.3524 14.5506 13.302 14.2146 13.2072C14.2374 13.0694 14.1947 12.9342 14.229 12.8349C14.3227 12.7675 14.4797 12.7686 14.6213 12.7527C14.4989 12.6925 14.3268 12.6687 14.1855 12.7035C14.1822 12.6079 14.1393 12.5486 14.1133 12.4738C14.3522 12.3885 14.9162 11.8296 15.2333 12.0146C15.3845 12.1026 15.4487 12.6055 15.4605 12.85C15.4702 13.0529 15.442 13.2575 15.3594 13.3649Z" stroke="#D33833" stroke-width="2.5"/>
<path fill-rule="evenodd" clip-rule="evenodd" d="M13.329 12.6705C13.3279 12.7027 13.3265 12.735 13.3253 12.7674C13.1926 12.8546 12.9784 12.8535 12.8328 12.9268C13.0475 12.9362 13.2164 12.9878 13.3626 13.0607C13.3594 13.1417 13.3563 13.2226 13.3531 13.3036C13.1099 13.47 12.8878 13.718 12.6015 13.8741C12.4661 13.9478 11.9911 14.1379 11.8471 14.1043C11.7655 14.0854 11.7582 13.9842 11.7257 13.889C11.6562 13.6848 11.4965 13.3599 11.4825 13.0527C11.4648 12.6646 11.4256 12.0143 11.8438 12.0941C12.1812 12.1585 12.5737 12.314 12.8348 12.4567C12.9945 12.5439 13.0868 12.6518 13.329 12.6705Z" fill="#D33833"/>
<path d="M13.329 12.6705C13.3279 12.7027 13.3265 12.735 13.3253 12.7674C13.1926 12.8546 12.9784 12.8535 12.8328 12.9268C13.0475 12.9362 13.2164 12.9878 13.3626 13.0607C13.3594 13.1417 13.3563 13.2226 13.3531 13.3036C13.1099 13.47 12.8878 13.718 12.6015 13.8741C12.4661 13.9478 11.9911 14.1379 11.8471 14.1043C11.7655 14.0854 11.7582 13.9842 11.7257 13.889C11.6562 13.6848 11.4965 13.3599 11.4825 13.0527C11.4648 12.6646 11.4256 12.0143 11.8438 12.0941C12.1812 12.1585 12.5737 12.314 12.8348 12.4567C12.9945 12.5439 13.0868 12.6518 13.329 12.6705Z" stroke="#D33833" stroke-width="2.5"/>
<path fill-rule="evenodd" clip-rule="evenodd" d="M13.569 13.1335C13.5319 12.9221 13.489 12.8618 13.5056 12.6773C14.0693 12.3015 14.1752 13.323 13.569 13.1335Z" fill="#D33833"/>
<path d="M13.569 13.1335C13.5319 12.9221 13.489 12.8618 13.5056 12.6773C14.0693 12.3015 14.1752 13.323 13.569 13.1335Z" stroke="#D33833" stroke-width="2.5"/>
<path fill-rule="evenodd" clip-rule="evenodd" d="M14.3858 13.3048C14.3858 13.3048 14.2104 13.0544 14.3356 12.9793C14.4609 12.9041 14.5861 12.9794 14.6612 12.8542C14.7363 12.7289 14.6612 12.6538 14.6862 12.5036C14.7112 12.3534 14.8365 12.3282 14.9617 12.3032C15.0868 12.2782 15.4375 12.2281 15.4875 12.3534L15.3372 11.9026L15.0368 11.8025L14.0852 12.3534L14.0352 12.6288V13.1797" fill="#EF3D3A"/>
<path fill-rule="evenodd" clip-rule="evenodd" d="M11.757 14.1312C11.7269 13.7404 11.6951 13.3502 11.6597 12.9597C11.6066 12.3768 11.7996 12.4785 12.305 12.4785C12.3821 12.4785 12.7802 12.5706 12.8087 12.6288C12.9452 12.9077 12.5803 12.8458 12.966 13.0561C13.2915 13.2336 13.8666 12.9483 13.7351 12.5537C13.6615 12.466 13.3516 12.5263 13.2404 12.4687C13.0448 12.3673 12.8492 12.2659 12.6536 12.1645C12.4047 12.0354 11.8295 11.8471 11.5641 12.0275C10.8918 12.4848 11.6065 13.6273 11.8464 14.1043" fill="#EF3D3A"/>
<path fill-rule="evenodd" clip-rule="evenodd" d="M12.4159 5.25936C11.7334 5.1004 11.3943 5.54497 11.1874 6.00606C11.0027 5.96128 11.0762 5.71008 11.1229 5.58208C11.2451 5.24614 11.7373 4.79895 12.1396 4.85957C12.3127 4.88564 12.547 5.04392 12.4159 5.25936Z" fill="#231F20"/>
<path fill-rule="evenodd" clip-rule="evenodd" d="M15.7405 6.03662C15.7513 6.03707 15.7622 6.03745 15.7728 6.0379C15.9272 6.35829 16.0606 6.69768 16.2552 6.98051C16.1248 7.28407 15.2682 7.5527 15.2814 7.00763C15.4667 6.92665 15.7865 6.9911 15.9507 6.88767C15.8557 6.62707 15.7187 6.40524 15.7405 6.03662Z" fill="#231F20"/>
<path fill-rule="evenodd" clip-rule="evenodd" d="M12.7642 6.04492C12.9106 6.31318 12.9582 6.59503 13.1662 6.79778C13.2599 6.88905 13.442 7.0003 13.3518 7.25414C13.3307 7.31401 13.1765 7.4475 13.0874 7.47371C12.7623 7.56972 12.0045 7.49354 12.2611 7.08812C12.53 7.10066 12.8915 7.26277 13.0925 7.06754C12.9381 6.82077 12.663 6.33256 12.7642 6.04492Z" fill="#231F20"/>
<path fill-rule="evenodd" clip-rule="evenodd" d="M15.618 8.77142C15.1284 9.08595 14.5825 9.42795 13.7801 9.34864C13.6087 9.19961 13.5433 8.86795 13.7099 8.6489C13.7965 8.79794 13.7421 9.07205 13.9837 9.11329C14.4389 9.1912 14.9688 8.83483 15.2962 8.71027C15.4992 8.36795 15.2787 8.24205 15.0958 8.02172C14.7213 7.57033 14.219 7.01083 14.2373 6.33505C14.3886 6.2253 14.4017 6.50257 14.4234 6.55305C14.6189 7.01068 15.111 7.59594 15.4702 7.98762C15.5584 8.08408 15.7036 8.17662 15.7197 8.2404C15.7663 8.42587 15.5985 8.64808 15.618 8.77142Z" fill="#231F20"/>
<path fill-rule="evenodd" clip-rule="evenodd" d="M9.16384 8.44017C9.01037 8.35258 8.97383 7.96677 8.79366 7.9558C8.53617 7.94017 8.58312 8.45632 8.58415 8.75816C8.40691 8.59725 8.37575 8.10184 8.50595 7.8474C8.35756 7.77454 8.2913 7.92778 8.20898 7.98179C8.31477 7.21331 9.33315 7.62534 9.16384 8.44017Z" fill="#231F20"/>
<path fill-rule="evenodd" clip-rule="evenodd" d="M15.9306 9.09131C15.7027 9.52514 15.3803 10.0029 14.7115 10.0168C14.6979 9.8767 14.6875 9.66351 14.7122 9.57914C15.2236 9.53001 15.5392 9.2698 15.9306 9.09131Z" fill="#231F20"/>
<path fill-rule="evenodd" clip-rule="evenodd" d="M12.7266 9.37256C13.1531 9.59685 13.9371 9.62094 14.5168 9.60397C14.5479 9.731 14.5472 9.88794 14.5484 10.0428C13.8031 10.08 12.9219 9.89563 12.7266 9.37256Z" fill="#231F20"/>
<path fill-rule="evenodd" clip-rule="evenodd" d="M12.646 9.79077C12.941 10.5314 13.9548 10.4461 14.8097 10.4257C14.7721 10.5218 14.6905 10.6355 14.5891 10.6765C14.3151 10.788 13.5595 10.8726 13.1791 10.6706C12.938 10.5424 12.7829 10.2526 12.6508 10.0828C12.587 10.0008 12.2692 9.79124 12.646 9.79077Z" fill="#231F20"/>
<path fill-rule="evenodd" clip-rule="evenodd" d="M15.5842 13.8761C15.238 14.4689 14.9068 15.0779 14.4961 15.6008C14.6683 15.0945 14.742 14.2472 14.768 13.6013C15.1282 13.4327 15.4367 13.6393 15.5842 13.8761Z" fill="#81B0C4"/>
<path fill-rule="evenodd" clip-rule="evenodd" d="M17.4461 16.0071C17.0585 16.0846 16.7862 16.4613 16.4082 16.4371C16.616 16.1442 16.9801 16.0207 17.4461 16.0071Z" fill="#231F20"/>
<path fill-rule="evenodd" clip-rule="evenodd" d="M17.6166 16.6135C17.3008 16.6469 16.9297 16.6981 16.6094 16.6717C16.7611 16.44 17.3454 16.52 17.6166 16.6135Z" fill="#231F20"/>
<path fill-rule="evenodd" clip-rule="evenodd" d="M17.7255 17.1365C17.3705 17.1441 16.9292 17.137 16.5918 17.1087C16.7914 16.8943 17.4953 17.0292 17.7255 17.1365Z" fill="#231F20"/>
<path fill-rule="evenodd" clip-rule="evenodd" d="M14.9153 18.5673C14.9662 19.0132 15.143 19.465 15.1208 19.9532C14.9246 20.0194 14.8118 20.0773 14.5488 20.077C14.5302 19.662 14.4747 19.0276 14.4913 18.632C14.6206 18.6406 14.8114 18.5397 14.9153 18.5673Z" fill="#DCD9D8"/>
<path fill-rule="evenodd" clip-rule="evenodd" d="M14.3436 11.9963C14.1654 12.1127 14.0135 12.258 13.8423 12.3822C13.4628 12.401 13.2556 12.3559 12.9766 12.1379C12.9812 12.1204 13.0092 12.1282 13.0102 12.1068C13.4166 12.2879 13.9333 12.033 14.3436 11.9963Z" fill="#F0D6B7"/>
<path fill-rule="evenodd" clip-rule="evenodd" d="M12.209 14.7667C12.3206 14.2829 12.7582 14.0323 13.1555 13.7659C13.5655 14.2864 13.815 14.9557 14.0896 15.6015C13.4408 15.4059 12.7777 15.0885 12.209 14.7667Z" fill="#81B0C4"/>
<path fill-rule="evenodd" clip-rule="evenodd" d="M14.4908 18.632C14.4742 19.0276 14.5297 19.662 14.5482 20.0769C14.8112 20.0773 14.924 20.0194 15.1202 19.9532C15.1424 19.4649 14.9656 19.0131 14.9147 18.5673C14.8108 18.5396 14.6201 18.6406 14.4908 18.632ZM10.3956 16.3822C10.569 17.9766 10.8203 19.3167 11.281 20.7285C12.3034 21.0389 13.536 21.066 14.4398 20.7859C14.2738 19.989 14.3464 19.019 14.2494 18.1686C14.1762 17.5296 14.2136 16.8865 14.1133 16.2345C13.0182 16.0067 11.4703 16.1812 10.3956 16.3822ZM14.3723 16.2444C14.363 16.9292 14.4029 17.6046 14.4552 18.2901C14.7181 18.2507 14.8965 18.2243 15.1408 18.1708C15.0615 17.5108 15.0713 16.7681 14.9097 16.1842C14.7229 16.186 14.5585 16.1821 14.3723 16.2444ZM15.7061 16.1341C15.5813 16.1055 15.436 16.133 15.3168 16.1353C15.3728 16.6935 15.5088 17.3093 15.5566 17.8953C15.7442 17.9011 15.8444 17.8126 15.9987 17.7829C16.007 17.2686 15.9537 16.56 15.7061 16.1341ZM17.7255 17.9793C18.1166 17.8843 18.3625 17.4054 18.2531 16.9136C18.1797 16.5831 18.049 15.9607 17.9091 15.7492C17.8057 15.5929 17.5255 15.3881 17.3017 15.5314C16.9377 15.7645 16.2963 15.8322 16.0309 16.1143C16.1639 16.5576 16.2053 17.1664 16.2602 17.7279C16.715 17.7562 17.2746 17.6028 17.6528 17.7656C17.3887 17.8512 17.0461 17.8519 16.8179 17.9766C17.0044 18.0666 17.4409 18.0484 17.7255 17.9793ZM14.0895 15.6014C13.8149 14.9556 13.5655 14.2863 13.1554 13.7658C12.7581 14.0322 12.3206 14.2828 12.2089 14.7666C12.7776 15.0884 13.4407 15.4058 14.0895 15.6014ZM14.7665 13.6013C14.7405 14.2473 14.6668 15.0946 14.4946 15.6008C14.9053 15.0779 15.2366 14.469 15.5827 13.8761C15.4351 13.6393 15.1267 13.4328 14.7665 13.6013ZM13.9991 13.3286C13.8435 13.3119 13.7114 13.5075 13.5091 13.4229C13.4628 13.4742 13.4206 13.5297 13.3734 13.5797C13.8202 14.1182 14.0232 14.8822 14.3683 15.515C14.5536 14.9071 14.5322 14.2411 14.573 13.5777C14.3186 13.5938 14.1774 13.3476 13.9991 13.3286ZM13.5057 12.6773C13.4891 12.8617 13.5319 12.9221 13.569 13.1335C14.1752 13.323 14.0694 12.3015 13.5057 12.6773ZM12.8334 12.4566C12.5722 12.314 12.1797 12.1585 11.8423 12.0941C11.4241 12.0141 11.4633 12.6646 11.481 13.0527C11.495 13.3599 11.6547 13.6848 11.7242 13.889C11.7567 13.9842 11.7641 14.0854 11.8455 14.1043C11.9896 14.1379 12.4647 13.9478 12.6 13.8741C12.8863 13.718 13.1084 13.47 13.3516 13.3036C13.3548 13.2226 13.3579 13.1417 13.3611 13.0607C13.2149 12.9878 13.046 12.9362 12.8313 12.9268C12.9769 12.8535 13.1911 12.8546 13.3238 12.7674C13.325 12.735 13.3264 12.7026 13.3275 12.6705C13.0853 12.6518 12.993 12.5439 12.8334 12.4566ZM10.3383 12.0035C10.1216 12.2236 10.9464 12.5236 11.2091 12.5397C11.2076 12.4005 11.2884 12.2691 11.2722 12.1692C10.9602 12.1145 10.5503 12.1506 10.3383 12.0035ZM13.009 12.1069C13.0079 12.1283 12.9799 12.1205 12.9753 12.138C13.2543 12.356 13.4614 12.4011 13.8411 12.3823C14.0123 12.2581 14.1642 12.1128 14.3424 11.9964C13.932 12.0331 13.4154 12.288 13.009 12.1069ZM15.4603 12.8501C15.4486 12.6056 15.3844 12.1027 15.2333 12.0147C14.916 11.8296 14.352 12.3886 14.1132 12.4739C14.1392 12.5487 14.1821 12.608 14.1853 12.7036C14.3267 12.6688 14.4987 12.6926 14.6212 12.7528C14.4795 12.7687 14.3226 12.7676 14.2288 12.835C14.1945 12.9343 14.2373 13.0695 14.2145 13.2073C14.5505 13.3021 14.9344 13.3525 15.3593 13.365C15.4419 13.2576 15.4701 13.053 15.4603 12.8501ZM9.97334 12.2164C9.90528 12.1678 9.44478 11.5686 9.38168 11.5935C8.54829 11.9221 7.76906 12.4904 7.07273 13.0279C7.73664 14.4525 8.00464 16.1978 8.052 17.88C8.81253 18.2358 9.4805 18.7485 10.5126 18.802C10.3932 17.9571 10.2841 17.2033 10.2163 16.4077C9.95703 16.2984 9.58503 16.4127 9.34234 16.3739C9.34027 16.0814 9.7129 16.2458 9.74403 16.0492C9.76737 15.9004 9.5389 15.8891 9.61334 15.6549C9.803 15.7238 9.90265 15.8762 10.105 15.9334C10.2898 15.5289 10.1024 14.8133 10.1291 14.4753C10.1341 14.4118 10.1607 14.1237 10.3029 14.1742C10.4288 14.219 10.2957 14.9406 10.3095 15.2605C10.3221 15.5553 10.2739 15.8406 10.3932 16.0255C11.3906 15.8898 12.4039 15.8021 13.483 15.7725C13.2456 15.6706 12.9636 15.5742 12.6544 15.3999C12.4868 15.3054 11.9584 15.1088 11.91 14.9496C11.8329 14.696 12.1125 14.5609 12.1603 14.3434C11.657 14.618 11.5587 14.0802 11.4397 13.6993C11.3318 13.3543 11.2704 13.0966 11.2439 12.8976C10.8102 12.6908 10.3467 12.4815 9.97334 12.2164ZM15.0199 11.666C15.7142 11.3293 15.8394 12.9243 15.5672 13.4381C15.6093 13.5914 15.754 13.65 15.813 13.7878C15.4256 14.4819 14.9952 15.1298 14.5998 15.8157C14.8939 15.6327 15.314 15.783 15.66 15.6459C15.7866 15.596 15.8782 15.3064 15.9739 15.0747C16.2373 14.4373 16.514 13.6337 16.637 13.0254C16.6648 12.8869 16.7405 12.5849 16.7235 12.4615C16.6932 12.2406 16.3936 12.077 16.2412 11.9404C15.9604 11.6881 15.7836 11.4661 15.4906 11.2302C15.3719 11.4056 15.117 11.5234 15.0199 11.666ZM8.38543 5.5085C8.05458 5.87253 8.12383 6.55463 8.16389 7.0399C8.76191 6.6637 9.55568 7.06964 9.54818 7.70952C9.83365 7.70193 9.65487 7.35293 9.60322 7.12809C9.43437 6.39371 9.88756 5.59587 9.62375 4.92429C9.11154 4.96313 8.69075 5.17234 8.38543 5.5085ZM10.7528 3.39567C10.0037 3.60796 9.04382 4.15221 8.73604 4.82505C8.97436 4.79042 9.1398 4.67023 9.37493 4.65536C9.46372 4.64957 9.58015 4.69262 9.68225 4.66722C9.88578 4.61675 10.0575 4.16047 10.2111 3.9907C10.3607 3.82491 10.5406 3.75407 10.6637 3.60293C10.7427 3.56476 10.8597 3.5674 10.8642 3.44862C10.8299 3.41197 10.7938 3.38402 10.7528 3.39567ZM14.6517 3.59533C13.8743 3.15671 12.5584 2.82678 11.7314 3.23905C11.0642 3.57175 10.1622 4.12223 9.85465 4.81979C10.142 5.49295 9.76962 6.10977 9.74581 6.7932C9.73315 7.15686 9.917 7.47432 9.93115 7.8702C9.83281 8.03239 9.53243 8.05237 9.32458 8.04125C9.2546 7.69104 9.13208 7.29741 8.77146 7.2579C8.26117 7.20208 7.88805 7.62441 7.86487 8.06574C7.83743 8.58475 8.26351 9.44493 8.8674 9.38521C9.10069 9.36217 9.158 9.12832 9.41215 9.13072C9.54997 9.40556 9.19967 9.4919 9.16363 9.68849C9.15425 9.73931 9.19268 9.93777 9.21503 10.0308C9.32473 10.4841 9.56928 11.0706 9.80993 11.4156C10.1154 11.8532 10.7156 11.9192 11.3612 11.9621C11.4765 11.7137 11.9013 11.7341 12.1782 11.7991C11.8464 11.6676 11.538 11.3492 11.2824 11.0673C10.9888 10.7437 10.6915 10.3968 10.6764 9.97406C11.2312 10.7437 11.6895 11.4158 12.6984 11.7545C13.4618 12.0105 14.3532 11.6371 14.9398 11.2252C15.1832 11.0541 15.3285 10.7824 15.5015 10.5337C16.1488 9.60262 16.4508 8.2736 16.3844 6.98544C16.3571 6.45418 16.3583 5.92474 16.1801 5.56732C15.9938 5.19359 15.3637 4.85923 14.9948 5.19728C14.9264 4.83385 15.3015 4.60909 15.7421 4.73987C15.4279 4.33445 15.0983 3.84729 14.6517 3.59533ZM16.1001 15.5821C16.7076 15.28 17.8427 14.7692 18.2235 15.5832C18.3641 15.8832 18.529 16.3904 18.6018 16.7001C18.7047 17.1371 18.4902 18.0555 18.0412 18.2022C17.6444 18.3317 17.1816 18.3238 16.7037 18.2278C16.6474 18.181 16.5848 18.0994 16.541 18.0143C16.1998 18.0011 15.8803 18.0327 15.6108 18.173C15.6363 18.4252 15.4657 18.4657 15.3057 18.5178C15.1871 18.988 15.5429 19.6023 15.4578 20.0311C15.397 20.3366 15.0211 20.3839 14.7448 20.4411C14.7357 20.6108 14.7569 20.7526 14.7758 20.8962C14.7126 21.129 14.4292 21.2615 14.1608 21.294C13.2774 21.4002 11.9362 21.4479 11.0865 21.1424C10.8494 20.5608 10.6627 19.8534 10.4652 19.1894C9.6365 19.2779 8.96629 18.8318 8.33446 18.5396C8.1157 18.4382 7.81309 18.3823 7.73137 18.2082C7.65213 18.0396 7.68456 17.7165 7.6649 17.4113C7.61486 16.6318 7.57203 15.8799 7.36617 15.0817C7.27374 14.7236 7.11264 14.4075 7.00026 14.0624C6.89638 13.7426 6.71489 13.3473 6.66756 13.0283C6.59736 12.5556 7.04251 12.5293 7.32714 12.3245C7.76716 12.0077 8.11253 11.8325 8.58907 11.5466C8.73022 11.462 9.15586 11.2476 9.20427 11.1489C9.30052 10.9532 9.03907 10.6773 8.96917 10.5239C8.8586 10.2814 8.80094 10.0753 8.7851 9.83596C8.38535 9.77277 8.08231 9.53484 7.89926 9.26661C7.59647 8.82266 7.38648 8.00128 7.64846 7.37651C7.669 7.32731 7.77147 7.23056 7.78658 7.15498C7.8164 7.00617 7.73047 6.80831 7.72513 6.65003C7.69761 5.83797 7.86253 5.13831 8.4092 4.89341C8.63113 4.00932 9.42547 3.71538 10.1738 3.276C10.4535 3.11179 10.7619 3.00685 11.0803 2.88966C12.2228 2.46921 13.9756 2.54839 14.9238 3.26548C15.3258 3.56957 15.9685 4.21163 16.1983 4.67647C16.8055 5.9037 16.7623 7.95471 16.3377 9.44756C16.2807 9.64799 16.1979 9.94265 16.0823 10.1834C16.0017 10.3515 15.7512 10.6879 15.7815 10.8364C15.8128 10.9898 16.3527 11.3997 16.4685 11.5114C16.6769 11.7125 17.073 11.9794 17.1051 12.2331C17.1396 12.5031 16.9861 12.8726 16.9083 13.1332C16.6484 14.0029 16.3948 14.8068 16.1001 15.5821Z" fill="#231F20"/>
<path fill-rule="evenodd" clip-rule="evenodd" d="M12.0483 9.56192C12.0812 9.51805 12.2624 9.45148 12.5159 9.57355C12.5159 9.57355 12.2154 9.62361 12.2405 10.1246L12.1152 10.0995C12.1152 10.0995 11.9858 9.64527 12.0483 9.56192Z" fill="#F7E4CD"/>
<path fill-rule="evenodd" clip-rule="evenodd" d="M14.2422 13.868C14.2422 13.9441 14.1805 14.0057 14.1045 14.0057C14.0285 14.0057 13.9668 13.9441 13.9668 13.868C13.9668 13.792 14.0285 13.7302 14.1045 13.7302C14.1805 13.7302 14.2422 13.792 14.2422 13.868Z" fill="#1D1919"/>
<path fill-rule="evenodd" clip-rule="evenodd" d="M14.3809 14.5065C14.3809 14.5825 14.3192 14.6441 14.2431 14.6441C14.1671 14.6441 14.1055 14.5825 14.1055 14.5065C14.1055 14.4304 14.1671 14.3687 14.2431 14.3687C14.3192 14.3687 14.3809 14.4304 14.3809 14.5065Z" fill="#1D1919"/>
</g>
</g>
<defs>
<clipPath id="clip0_872_2522">
<rect width="24" height="24" fill="white"/>
</clipPath>
</defs>
</svg>
