<svg width="32" height="23" viewBox="0 0 32 23" fill="none" xmlns="http://www.w3.org/2000/svg">
<path d="M10.8369 0.0165715C9.26311 0.0593002 6.82045 0.194608 5.7095 0.294308C3.46624 0.50083 2.57606 0.807053 1.70012 1.66875C1.10904 2.25271 0.831307 2.78682 0.582056 3.78382C0.140526 5.58555 -0.101603 9.78008 0.040826 13.2269C0.176134 16.6452 0.475235 18.6534 0.987979 19.7003C1.2942 20.327 2.02059 21.032 2.69713 21.3738C3.59443 21.8153 4.88341 22.0005 8.41565 22.207C10.5663 22.3281 21.4337 22.3281 23.5843 22.207C27.138 22.0005 28.4056 21.8153 29.31 21.3667C29.9865 21.032 30.7058 20.3198 31.0191 19.686C31.5248 18.6534 31.8239 16.6238 31.9592 13.2269C32.1016 9.78008 31.8595 5.58555 31.4179 3.78382C31.1758 2.80818 30.8981 2.27407 30.3212 1.69011C29.2744 0.629016 28.2347 0.379766 23.7624 0.116272C22.5375 0.0379359 12.5888 -0.0332786 10.8369 0.0165715ZM16.9899 8.76171C19.226 10.0578 21.0562 11.1332 21.0562 11.1545C21.0562 11.1901 13.0375 15.8476 12.8594 15.9117C12.8238 15.9259 12.7953 14.0031 12.7953 11.1545C12.7953 8.30594 12.8238 6.38315 12.8594 6.39739C12.895 6.40451 14.7537 7.47273 16.9899 8.76171Z" fill="#737373"/>
</svg>
