<svg width="24" height="24" viewBox="0 0 24 24" fill="none" xmlns="http://www.w3.org/2000/svg">
<g clip-path="url(#clip0_872_2769)">
<path d="M18.375 0H5.625C2.5184 0 0 2.5184 0 5.625V18.375C0 21.4816 2.5184 24 5.625 24H18.375C21.4816 24 24 21.4816 24 18.375V5.625C24 2.5184 21.4816 0 18.375 0Z" fill="#F4F2ED"/>
<mask id="mask0_872_2769" style="mask-type:luminance" maskUnits="userSpaceOnUse" x="3" y="3" width="18" height="18">
<path d="M20.4375 3.5625H3.5625V20.4375H20.4375V3.5625Z" fill="white"/>
</mask>
<g mask="url(#mask0_872_2769)">
<path d="M16.0768 15.847C16.1843 14.9525 16.152 14.822 16.8177 14.9664L16.9871 14.9815C17.4994 15.0045 18.169 14.8991 18.5692 14.7165C19.4163 14.3236 19.9185 13.6671 19.0834 13.8398C17.1783 14.2327 17.0399 13.5873 17.0399 13.5873C19.0524 10.6013 19.8941 6.81098 19.1671 5.88352C17.1869 3.35227 13.7585 4.54934 13.7012 4.58098L13.6827 4.58427C13.307 4.50517 12.8917 4.45903 12.4104 4.45244C11.5483 4.43926 10.8944 4.67854 10.3974 5.05493C10.3974 5.05493 4.28214 2.53554 4.56624 8.22361C4.62689 9.43383 6.29989 17.3862 8.2972 14.9802C9.02824 14.1009 9.7336 13.3579 9.7336 13.3579C10.0829 13.5906 10.5028 13.7093 10.9425 13.6665L10.9767 13.6375C10.9666 13.7514 10.9713 13.8661 10.9906 13.9789C10.4765 14.5537 10.6281 14.6546 9.59973 14.8662C8.55956 15.0804 9.17128 15.462 9.56945 15.5623C10.0533 15.6836 11.1726 15.855 11.9293 14.7963L11.8989 14.9169C12.1007 15.0784 12.0868 16.077 12.1164 16.7903C12.1462 17.5035 12.1929 18.17 12.3386 18.5622C12.4843 18.9544 12.655 19.9663 14.0064 19.6828C15.1356 19.4409 15.9991 19.0921 16.0781 15.853" fill="black"/>
<path d="M16.0768 15.847C16.1843 14.9525 16.152 14.822 16.8177 14.9664L16.9871 14.9815C17.4994 15.0045 18.169 14.8991 18.5692 14.7165C19.4163 14.3236 19.9185 13.6671 19.0834 13.8398C17.1783 14.2327 17.0399 13.5873 17.0399 13.5873C19.0524 10.6013 19.8941 6.81098 19.1671 5.88352C17.1869 3.35227 13.7585 4.54934 13.7012 4.58098L13.6827 4.58427C13.307 4.50517 12.8917 4.45903 12.4104 4.45244C11.5483 4.43926 10.8944 4.67854 10.3974 5.05493C10.3974 5.05493 4.28214 2.53554 4.56624 8.22361C4.62689 9.43383 6.29989 17.3862 8.2972 14.9802C9.02824 14.1009 9.7336 13.3579 9.7336 13.3579C10.0829 13.5906 10.5028 13.7093 10.9425 13.6665L10.9767 13.6375C10.9666 13.7514 10.9713 13.8661 10.9906 13.9789C10.4765 14.5537 10.6281 14.6546 9.59973 14.8662C8.55956 15.0804 9.17128 15.462 9.56945 15.5623C10.0533 15.6836 11.1726 15.855 11.9293 14.7963L11.8989 14.9169C12.1007 15.0784 12.0868 16.077 12.1164 16.7903C12.1462 17.5035 12.1929 18.17 12.3386 18.5622C12.4843 18.9544 12.655 19.9663 14.0064 19.6828C15.1356 19.4409 15.9991 19.0921 16.0781 15.853" stroke="black" stroke-width="15.11"/>
<path d="M19.0762 13.846C17.1712 14.2388 17.0328 13.5935 17.0328 13.5935C19.0452 10.6074 19.887 6.81708 19.1606 5.88961C17.1805 3.35836 13.752 4.55609 13.6946 4.58707L13.6762 4.59037C13.2575 4.50635 12.8318 4.46199 12.4046 4.45787C11.5424 4.44469 10.8885 4.68397 10.3916 5.06037C10.3916 5.06037 4.27566 2.54098 4.56043 8.22904C4.62107 9.43933 6.29407 17.3917 8.29138 14.9857C9.02703 14.101 9.7324 13.3581 9.7324 13.3581C10.0817 13.5908 10.5016 13.7094 10.9413 13.6666L10.9755 13.6376C10.9655 13.7515 10.9702 13.8663 10.9894 13.9791C10.4753 14.5539 10.6269 14.6547 9.59852 14.8663C8.55836 15.0805 9.17008 15.4622 9.56824 15.5624C10.0521 15.6837 11.1714 15.8551 11.9281 14.7965L11.8977 14.917C12.0995 15.0786 12.2405 15.9671 12.2168 16.7726C12.1931 17.5782 12.1772 18.1306 12.3355 18.563C12.4936 18.9955 12.6519 19.9671 14.0032 19.6836C15.1324 19.4417 15.717 18.8135 15.7994 17.7681C15.8575 17.0245 15.988 17.1339 15.9972 16.4694L16.1027 16.1544C16.2233 15.1458 16.1224 14.8209 16.8178 14.9724L16.9872 14.9876C17.4995 15.0107 18.1699 14.9052 18.5627 14.7226C19.4097 14.3298 19.9121 13.6732 19.0769 13.846H19.0762Z" fill="#336791"/>
<path d="M13.6947 4.55597C13.4838 4.6219 17.0988 3.23432 19.1541 5.85984C19.8792 6.7873 19.0387 10.5776 17.0262 13.5636M12.0098 14.4173C11.9572 16.2934 12.0231 18.1825 12.2063 18.6361C12.3895 19.0896 12.7831 19.9874 14.1351 19.6986C15.2643 19.4568 15.6756 18.988 15.8536 17.9538L16.2708 14.6467L12.0098 14.4173ZM10.3897 5.01279C10.3897 5.01279 4.26979 2.51054 4.55456 8.1986C4.61521 9.40884 6.2882 17.3612 8.28552 14.9552C9.01457 14.0765 9.67378 13.389 9.67378 13.389L10.3897 5.01279Z" stroke="white" stroke-width="5.034" stroke-linecap="round" stroke-linejoin="round"/>
<path d="M17.0274 13.5623C17.0274 13.5623 17.1593 14.2083 19.0708 13.8141C19.9061 13.6414 19.4031 14.298 18.5567 14.6909C17.8619 15.0138 16.3036 15.0962 16.2779 14.6513C16.212 13.501 17.098 13.8504 17.034 13.5623C16.976 13.3026 16.5791 13.0482 16.3181 12.4127C16.0894 11.859 13.1804 7.60728 17.125 8.23811C17.27 8.20845 16.0966 4.48079 12.4052 4.42674C8.71382 4.37269 8.83049 8.96519 8.83049 8.96519" stroke="white" stroke-width="5.034" stroke-linecap="round" stroke-linejoin="bevel"/>
<path d="M10.9775 13.9566C10.4634 14.5314 10.6149 14.6323 9.5867 14.8439C8.54647 15.0581 9.15819 15.4398 9.55632 15.54C10.0402 15.6613 11.1594 15.8327 11.9162 14.7733C12.1469 14.4503 11.9149 13.9362 11.5985 13.8057C11.4456 13.7424 11.2412 13.6633 10.9789 13.9573L10.9775 13.9566Z" stroke="white" stroke-width="5.034" stroke-linejoin="round"/>
<path d="M10.9428 13.9466C10.89 13.6084 11.0535 13.207 11.2281 12.7364C11.4906 12.0311 12.0957 11.3257 11.6119 9.08649C11.2512 7.41877 8.83009 8.73911 8.83009 8.96521C8.83009 9.1913 8.93951 10.1122 8.79053 11.1833C8.59477 12.5822 9.68043 13.7647 10.9302 13.6441" stroke="white" stroke-width="5.034" stroke-linecap="round" stroke-linejoin="round"/>
<path d="M10.3678 8.93157C10.3565 9.0087 10.5094 9.21503 10.7079 9.24271C10.9063 9.2704 11.0757 9.10956 11.0869 9.03177C11.0981 8.95399 10.9452 8.86961 10.7468 8.84193C10.5483 8.81425 10.3776 8.85511 10.3678 8.93157Z" fill="white" stroke="white" stroke-width="1.68"/>
<path d="M16.4071 8.77411C16.4176 8.85124 16.2654 9.05755 16.067 9.08524C15.8685 9.11293 15.6978 8.95208 15.688 8.87431C15.678 8.79652 15.8297 8.71215 16.0281 8.68446C16.2265 8.65677 16.3972 8.69765 16.4071 8.77411Z" fill="white" stroke="white" stroke-width="0.837"/>
<path d="M17.1173 8.2395C17.1502 8.84595 16.9867 9.25794 16.9656 9.90331C16.9353 10.8406 17.4126 11.9138 16.6934 12.9882" stroke="white" stroke-width="5.034" stroke-linecap="round" stroke-linejoin="round"/>
</g>
</g>
<defs>
<clipPath id="clip0_872_2769">
<rect width="24" height="24" fill="white"/>
</clipPath>
</defs>
</svg>
