<svg width="24" height="24" viewBox="0 0 24 24" fill="none" xmlns="http://www.w3.org/2000/svg">
<g clip-path="url(#clip0_872_2717)">
<path d="M18.375 0H5.625C2.5184 0 0 2.5184 0 5.625V18.375C0 21.4816 2.5184 24 5.625 24H18.375C21.4816 24 24 21.4816 24 18.375V5.625C24 2.5184 21.4816 0 18.375 0Z" fill="#F4F2ED"/>
<path d="M5.79946 4.57248C2.89285 7.73115 3.59728 13.6176 7.372 17.7197C11.1467 21.8217 16.5626 22.5863 19.4692 19.4276C22.3758 16.2689 21.6733 10.3823 17.8986 6.28018C14.1239 2.1781 8.70607 1.4138 5.79946 4.57248ZM8.43512 5.88459C10.7189 3.40271 14.9181 3.94259 17.815 7.09066C20.7118 10.2387 21.2086 14.8021 18.9248 17.2839C16.6409 19.7659 12.4406 19.2272 9.54387 16.0791C6.64697 12.931 6.15128 8.36648 8.43512 5.88459Z" fill="url(#paint0_radial_872_2717)"/>
<path d="M18.4012 5.69434H16.8289C16.5912 5.69434 16.3984 5.88709 16.3984 6.12485V7.69717C16.3984 7.93494 16.5912 8.12769 16.8289 8.12769H18.4012C18.6391 8.12769 18.8318 7.93494 18.8318 7.69717V6.12485C18.8318 5.88709 18.6391 5.69434 18.4012 5.69434Z" fill="#FF7F2A" stroke="#D45500" stroke-width="6.28859"/>
<path d="M7.43614 8.8999H3.73277C3.17274 8.8999 2.71875 9.3539 2.71875 9.91389V13.6173C2.71875 14.1773 3.17274 14.6313 3.73277 14.6313H7.43614C7.99616 14.6313 8.45016 14.1773 8.45016 13.6173V9.91389C8.45016 9.3539 7.99616 8.8999 7.43614 8.8999Z" fill="#FF7F2A" stroke="#D45500" stroke-width="6.28859"/>
<path d="M20.3812 16.4031H18.1439C17.8056 16.4031 17.5312 16.6774 17.5312 17.0157V19.2531C17.5312 19.5914 17.8056 19.8657 18.1439 19.8657H20.3812C20.7196 19.8657 20.9939 19.5914 20.9939 19.2531V17.0157C20.9939 16.6774 20.7196 16.4031 20.3812 16.4031Z" fill="#FF7F2A" stroke="#D45500" stroke-width="6.28859"/>
</g>
<defs>
<radialGradient id="paint0_radial_872_2717" cx="0" cy="0" r="1" gradientUnits="userSpaceOnUse" gradientTransform="translate(8.37406 18.7788) rotate(-47.3797) scale(28.1976 93.7347)">
<stop stop-color="#008CBE"/>
<stop offset="1" stop-color="#B2FFFF"/>
</radialGradient>
<clipPath id="clip0_872_2717">
<rect width="24" height="24" fill="white"/>
</clipPath>
</defs>
</svg>
