<svg width="24" height="24" viewBox="0 0 24 24" fill="none" xmlns="http://www.w3.org/2000/svg">
<g clip-path="url(#clip0_872_2345)">
<path d="M18.375 0H5.625C2.5184 0 0 2.5184 0 5.625V18.375C0 21.4816 2.5184 24 5.625 24H18.375C21.4816 24 24 21.4816 24 18.375V5.625C24 2.5184 21.4816 0 18.375 0Z" fill="#F4F2ED"/>
<path d="M2.89449 15.8591L2.4375 4.88086L9.74278 10.1502V22.0074L2.89449 15.8591Z" fill="#E40000" stroke="white" stroke-width="4.919"/>
<path d="M9.74414 22.0095L20.7031 17.6191L21.6172 6.64087L9.74414 10.1545V22.0117V22.0095Z" fill="#7FE719" stroke="white" stroke-width="4.919"/>
<path d="M2.4375 4.88077L9.74278 10.1501L21.6157 6.63652L13.4631 1.96875L2.4375 4.88077Z" fill="#729FCF" stroke="white" stroke-width="4.919"/>
<path d="M13.4267 12.6868V2.02002M13.4267 12.6868L2.93359 15.6735M13.4267 12.6868L20.7475 17.5935" stroke="white" stroke-width="2.901"/>
</g>
<defs>
<clipPath id="clip0_872_2345">
<rect width="24" height="24" fill="white"/>
</clipPath>
</defs>
</svg>
